<svg width="50" height="35" viewBox="0 0 50 35" fill="none" xmlns="http://www.w3.org/2000/svg">
<path d="M40.2355 8.08917H37.7206V20.2082C37.7206 21.6332 38.3564 22.8633 40.2355 23.0604V8.08917ZM41.0151 25.252C36.7305 28.0132 29.6414 30.2937 23.7368 30.8827C14.1349 31.8399 4.12392 30.3326 2.72473 22.2179C2.04235 18.218 3.73109 13.9733 5.95846 11.3442V9.93431C1.93503 13.7502 -0.245757 18.584 1.00966 24.2926C2.61336 31.6169 11.2049 35.7641 24.316 34.3846C29.5037 33.841 36.2951 32.0327 41.0151 29.2303V25.252Z" fill="#187DC1"/>
<path d="M10.2512 8.45517H7.73633V11.0388H10.2512V8.45517Z" fill="#187DC1"/>
<path d="M20.566 23.1817V15.7036C20.566 14.1877 19.8188 12.5158 17.632 12.5158L12.4746 12.5115V23.1817H14.9713V14.6923H17.0366C17.7737 14.6923 18.0774 15.0821 18.0774 15.7188V23.1795H20.566V23.1817ZM49.0377 9.84119C46.7598 -2.18471 25.1625 -2.94702 11.2455 6.21372V7.22508C25.1463 -0.499825 44.8645 -0.456511 46.6626 10.6187C47.2619 14.2851 45.3545 18.1032 41.9466 20.3013V23.173C46.047 21.5466 50.2587 16.2819 49.0377 9.84119ZM7.73438 12.5158V20.4313C7.73438 21.8628 8.37423 23.0929 10.2533 23.2878V12.5158H7.73438Z" fill="#187DC1"/>
<path d="M22.4351 9.60947V20.1194C22.4351 21.6332 23.3037 23.1643 25.3367 23.1643V23.16H26.8088V20.912H25.7964C25.201 20.912 24.9277 20.5699 24.9277 19.9483V14.6944H26.8088V12.5136H24.9297V9.60947H22.4351Z" fill="#187DC1"/>
<path d="M10.2567 23.2899H10.2534V23.2965L10.2567 23.2899Z" fill="#187DC1"/>
<path d="M36.2671 17.7069C36.2671 14.6598 34.7281 12.3295 32.0675 12.3295C29.4412 12.3295 27.4487 14.3154 27.4487 17.8303C27.4487 21.9386 29.7368 23.3462 32.1262 23.3462C33.9506 23.3462 34.9914 22.7074 35.9775 21.6549L34.4345 20.0588C33.7947 20.7518 33.2459 21.0788 32.1424 21.0788C30.725 21.0788 29.9272 20.0588 29.9272 18.6814L36.2671 18.6749V17.7069ZM29.9272 16.8428C29.9292 16.4421 30.0102 16.048 30.1661 15.682C30.4435 15.0388 31.1036 14.5667 31.9581 14.5667C33.2378 14.5667 33.7238 15.682 33.7724 16.8428H29.9272Z" fill="#187DC1"/>
<path d="M40.2355 17.3214H37.7206V20.2104C37.7206 21.6354 38.3564 22.8655 40.2355 23.0625V17.3214ZM2.94946 17.3214H1.19996C0.853711 18.4973 0.665398 19.7274 0.655273 21.0095V21.2217C0.663373 22.2136 0.778791 23.238 1.00963 24.2926C2.40679 30.6748 9.1152 34.6466 19.4967 34.6466C21.0255 34.6466 22.6333 34.56 24.3159 34.3824C29.5036 33.8389 36.2951 32.0305 41.015 29.2282V25.252C36.7304 28.0132 29.6413 30.2937 23.7368 30.8827C22.1048 31.0452 20.4606 31.1383 18.8488 31.1383C10.9801 31.1383 3.88495 28.9553 2.72469 22.2179C2.44526 20.585 2.5627 18.911 2.94946 17.3214Z" fill="#156DA8"/>
<path d="M14.9713 17.3214H12.4746V23.1817H14.9713V17.3214ZM20.566 17.3214H18.0754V23.1817H20.566V17.3214ZM48.0314 17.3214H45.0386C44.2428 18.4735 43.196 19.4957 41.9487 20.2992V23.1708C44.2793 22.2483 46.6464 20.1476 48.0314 17.3214ZM10.2533 17.3214H7.73438V20.4334C7.73438 21.8649 8.37423 23.095 10.2533 23.2899V17.3214ZM24.9276 17.3214H22.435V20.1194C22.435 21.6332 23.3036 23.1643 25.3366 23.1643V23.16H26.8087V20.912H25.7962C25.2009 20.912 24.9276 20.5699 24.9276 19.9483V17.3214Z" fill="#156DA8"/>
<path d="M10.2568 23.2878H10.2534V23.2929H10.2568V23.2878Z" fill="#156DA8"/>
<path d="M36.259 17.3214H27.4629C27.4528 17.4881 27.4487 17.6571 27.4487 17.8325C27.4487 21.9407 29.7368 23.3484 32.1262 23.3484C33.9506 23.3484 34.9914 22.7095 35.9775 21.657L34.4345 20.0609C33.7947 20.7539 33.2459 21.081 32.1424 21.081C30.725 21.081 29.9272 20.0609 29.9272 18.6836L36.2671 18.6771V17.7069C36.2671 17.5769 36.263 17.4492 36.259 17.3214Z" fill="#156DA8"/>
</svg>
