<svg width="19" height="19" viewBox="0 0 19 19" fill="none" xmlns="http://www.w3.org/2000/svg">
<path d="M9.9502 10.4939C11.1928 10.4939 12.2002 9.48654 12.2002 8.2439C12.2002 7.00126 11.1928 5.9939 9.9502 5.9939C8.70755 5.9939 7.7002 7.00126 7.7002 8.2439C7.7002 9.48654 8.70755 10.4939 9.9502 10.4939Z" stroke="#767F8C" stroke-width="2" stroke-linecap="round" stroke-linejoin="round"/>
<path d="M15.5752 8.2439C15.5752 13.3064 9.9502 17.2439 9.9502 17.2439C9.9502 17.2439 4.3252 13.3064 4.3252 8.2439C4.3252 6.75205 4.91783 5.32131 5.97272 4.26642C7.02761 3.21153 8.45835 2.6189 9.9502 2.6189C11.442 2.6189 12.8728 3.21153 13.9277 4.26642C14.9826 5.32131 15.5752 6.75205 15.5752 8.2439V8.2439Z" stroke="#767F8C" stroke-width="2" stroke-linecap="round" stroke-linejoin="round"/>
</svg>
