<svg width="19" height="18" viewBox="0 0 19 18" fill="none" xmlns="http://www.w3.org/2000/svg">
<path d="M9.45587 9.5625C10.71 9.5625 11.7267 8.55514 11.7267 7.3125C11.7267 6.06986 10.71 5.0625 9.45587 5.0625C8.20174 5.0625 7.18506 6.06986 7.18506 7.3125C7.18506 8.55514 8.20174 9.5625 9.45587 9.5625Z" stroke="#767F8C" stroke-width="2" stroke-linecap="round" stroke-linejoin="round"/>
<path d="M15.1329 7.3125C15.1329 12.375 9.45585 16.3125 9.45585 16.3125C9.45585 16.3125 3.77881 12.375 3.77881 7.3125C3.77881 5.82066 4.37692 4.38992 5.44158 3.33502C6.50623 2.28013 7.9502 1.6875 9.45585 1.6875C10.9615 1.6875 12.4055 2.28013 13.4701 3.33502C14.5348 4.38992 15.1329 5.82066 15.1329 7.3125V7.3125Z" stroke="#767F8C" stroke-width="2" stroke-linecap="round" stroke-linejoin="round"/>
</svg>
